<svg width="277" height="45" viewBox="0 0 277 45" fill="none" xmlns="http://www.w3.org/2000/svg">
<path d="M0.956253 29V0.679998H5.27625V29H0.956253ZM6.71625 29V0.679998H8.15625V29H6.71625ZM9.59625 29V0.679998H13.9163V29H9.59625ZM19.6763 29V0.679998H21.1163V29H19.6763ZM22.5563 29V0.679998H23.9963V29H22.5563ZM9.78825 33.176H16.6043V34.28H10.9403V37.928H15.6443V39.08H10.9403V43.208H16.5563V44.312H9.78825V33.176ZM29.025 29V0.679998H30.465V29H29.025ZM31.905 29V0.679998H33.345V29H31.905ZM34.785 29V0.679998H39.105V29H34.785ZM44.865 29V0.679998H46.305V29H44.865ZM47.745 29V0.679998H52.065V29H47.745ZM37.761 33.176H40.353C41.281 33.176 42.001 33.304 42.513 33.56C43.057 33.816 43.521 34.2 43.905 34.712C44.641 35.672 45.009 37.032 45.009 38.792C44.945 40.616 44.529 41.992 43.761 42.92C42.993 43.88 41.793 44.344 40.161 44.312H37.761V33.176ZM40.065 43.352C42.529 43.352 43.761 41.864 43.761 38.888C43.761 37.384 43.489 36.232 42.945 35.432C42.369 34.632 41.473 34.232 40.257 34.232H38.961V43.352H40.065ZM57.0938 29V0.679998H58.5338V29H57.0938ZM59.9738 29V0.679998H64.2938V29H59.9738ZM65.7338 29V0.679998H67.1738V29H65.7338ZM68.6138 29V0.679998H72.9338V29H68.6138ZM78.6938 29V0.679998H80.1338V29H78.6938ZM69.2858 44.504C67.8458 44.504 66.6778 44.024 65.7818 43.064L66.4538 41.96L66.5018 41.816L66.6458 41.864C66.6458 41.896 66.6618 41.96 66.6938 42.056C66.6938 42.12 66.7258 42.2 66.7898 42.296C66.8218 42.36 66.8858 42.424 66.9818 42.488C67.6538 43.064 68.4858 43.352 69.4778 43.352C70.1178 43.352 70.6618 43.176 71.1098 42.824C71.5578 42.44 71.7818 41.992 71.7818 41.48C71.7818 41.128 71.7018 40.824 71.5418 40.568C71.4138 40.344 71.1738 40.12 70.8218 39.896C70.4698 39.672 69.9258 39.4 69.1898 39.08C68.1018 38.664 67.3178 38.184 66.8378 37.64C66.3898 37.096 66.1658 36.488 66.1658 35.816C66.1658 34.984 66.4698 34.312 67.0778 33.8C67.6858 33.288 68.5018 33.032 69.5258 33.032C70.1338 33.032 70.7098 33.16 71.2538 33.416C71.7658 33.672 72.2298 34.008 72.6458 34.424L71.8298 35.528L71.7338 35.432C71.7338 35.4 71.7178 35.352 71.6858 35.288C71.6858 35.192 71.6538 35.112 71.5898 35.048C71.5578 34.952 71.4938 34.872 71.3978 34.808C71.1418 34.552 70.8378 34.36 70.4858 34.232C70.1658 34.136 69.7818 34.088 69.3338 34.088C68.7578 34.088 68.3098 34.248 67.9898 34.568C67.6378 34.888 67.4618 35.272 67.4618 35.72C67.4618 36.072 67.5258 36.376 67.6538 36.632C67.8138 36.888 68.0858 37.128 68.4698 37.352C68.8538 37.608 69.4298 37.88 70.1978 38.168C71.2538 38.616 71.9898 39.064 72.4058 39.512C72.7898 39.992 72.9818 40.584 72.9818 41.288C72.9818 41.832 72.8538 42.344 72.5978 42.824C72.3098 43.304 71.8938 43.704 71.3498 44.024C70.7738 44.344 70.0858 44.504 69.2858 44.504ZM85.1625 29V0.679998H89.4825V29H85.1625ZM90.9225 29V0.679998H92.3625V29H90.9225ZM93.8025 29V0.679998H98.1225V29H93.8025ZM99.5625 29V0.679998H101.003V29H99.5625ZM106.763 29V0.679998H108.203V29H106.763ZM97.4025 44.504C96.1225 44.504 95.1465 44.008 94.4745 43.016C93.7705 42.024 93.4185 40.616 93.4185 38.792C93.4185 37.032 93.7705 35.64 94.4745 34.616C95.1785 33.624 96.1545 33.128 97.4025 33.128C98.6505 33.128 99.6265 33.624 100.331 34.616C101.035 35.64 101.387 37.032 101.387 38.792C101.387 40.616 101.035 42.024 100.331 43.016C99.6585 44.008 98.6825 44.504 97.4025 44.504ZM97.4025 43.4C98.2665 43.4 98.9225 43.016 99.3705 42.248C99.8505 41.448 100.091 40.296 100.091 38.792C100.091 37.384 99.8505 36.264 99.3705 35.432C98.8905 34.632 98.2345 34.232 97.4025 34.232C96.5705 34.232 95.9145 34.632 95.4345 35.432C94.9545 36.264 94.7145 37.384 94.7145 38.792C94.7145 40.296 94.9385 41.448 95.3865 42.248C95.8665 43.016 96.5385 43.4 97.4025 43.4ZM113.231 29V0.679998H114.671V29H113.231ZM116.111 29V0.679998H117.551V29H116.111ZM118.991 29V0.679998H123.311V29H118.991ZM124.751 29V0.679998H126.191V29H124.751ZM131.951 29V0.679998H136.271V29H131.951ZM121.919 33.176H123.119L127.775 41.432V33.176H129.167V33.32C129.071 33.384 129.023 33.464 129.023 33.56C128.991 33.624 128.975 33.768 128.975 33.992V44.312H128.015L123.071 35.576V44.312H121.919V33.176ZM141.3 29V0.679998H142.74V29H141.3ZM148.5 29V0.679998H152.82V29H148.5ZM154.26 29V0.679998H155.7V29H154.26ZM157.14 29V0.679998H161.46V29H157.14ZM162.9 29V0.679998H164.34V29H162.9ZM169.369 29V0.679998H170.809V29H169.369ZM172.249 29V0.679998H176.569V29H172.249ZM178.009 29V0.679998H179.449V29H178.009ZM180.889 29V0.679998H182.329V29H180.889ZM188.089 29V0.679998H192.409V29H188.089ZM178.345 33.176H179.785V33.32C179.721 33.384 179.673 33.464 179.641 33.56C179.641 33.624 179.641 33.768 179.641 33.992V43.256H184.969V44.312H178.345V33.176ZM197.438 29V0.679998H201.758V29H197.438ZM207.518 29V0.679998H208.958V29H207.518ZM210.398 29V0.679998H211.838V29H210.398ZM213.278 29V0.679998H214.718V29H213.278ZM216.158 29V0.679998H220.478V29H216.158ZM209.678 44.504C208.526 44.504 207.646 44.152 207.038 43.448C206.43 42.744 206.126 41.752 206.126 40.472V33.176H207.518V33.32C207.422 33.384 207.374 33.464 207.374 33.56C207.342 33.624 207.326 33.768 207.326 33.992V40.472C207.326 41.432 207.518 42.168 207.902 42.68C208.254 43.192 208.862 43.448 209.726 43.448C210.558 43.448 211.166 43.192 211.549 42.68C211.934 42.168 212.126 41.416 212.126 40.424V33.176H213.326V40.424C213.326 41.8 213.006 42.824 212.366 43.496C211.726 44.168 210.83 44.504 209.678 44.504ZM225.506 29V0.679998H226.946V29H225.506ZM228.386 29V0.679998H232.706V29H228.386ZM234.146 29V0.679998H235.586V29H234.146ZM241.346 29V0.679998H245.666V29H241.346ZM247.106 29V0.679998H248.546V29H247.106ZM234.722 43.256H236.93V34.232H234.866V33.176H240.386V34.232H238.178V43.256H240.482V44.312H234.722V43.256ZM253.575 29V0.679998H255.015V29H253.575ZM260.775 29V0.679998H265.095V29H260.775ZM266.535 29V0.679998H270.855V29H266.535ZM272.295 29V0.679998H273.735V29H272.295ZM275.175 29V0.679998H276.615V29H275.175ZM262.263 43.448L267.831 34.328H262.455V33.176H269.319V34.088L263.799 43.208H268.839C269.031 43.208 269.175 43.192 269.271 43.16C269.335 43.128 269.415 43.08 269.511 43.016H269.607V44.312H262.263V43.448Z" fill="#9535F5"/>
</svg>
